<svg xmlns="http://www.w3.org/2000/svg" width="18" height="18" viewBox="0 0 18 18"><defs><linearGradient id="rg-grad" x1="9" y1="3" x2="9" y2="16" gradientUnits="userSpaceOnUse"><stop offset="0" stop-color="#3CCBF4"/><stop offset="1" stop-color="#0078D4"/></linearGradient></defs><path d="M2 5 L2 15 A1 1 0 0 0 3 16 L15 16 A1 1 0 0 0 16 15 L16 6 A1 1 0 0 0 15 5 L9 5 L7 3 L3 3 A1 1 0 0 0 2 4 Z" fill="url(#rg-grad)"/><rect x="5" y="9" width="2.5" height="4" fill="#fff" opacity="0.85"/><rect x="8" y="9" width="2.5" height="4" fill="#fff" opacity="0.85"/><rect x="11" y="9" width="2.5" height="4" fill="#fff" opacity="0.85"/></svg>
